<?xml version="1.0" encoding="UTF-8"?>
<svg version="1.1" xmlns="http://www.w3.org/2000/svg" width="567" height="567">
<path d="M0 0 C1.09487732 0.00432037 2.18975464 0.00864075 3.31781006 0.01309204 C21.60336123 0.09726009 39.62055805 0.97093247 57.77441406 3.12176514 C60.0518116 3.38838258 62.3303325 3.64286591 64.609375 3.89501953 C146.80120575 13.03393853 146.80120575 13.03393853 181.17114258 27.33007812 C185.16200829 28.95473564 187.82194291 29.94047008 191.9375 28.375 C194.13278191 27.11268222 194.13278191 27.11268222 196.3125 25.5625 C205.30069419 19.98177047 216.43885626 17.72063436 226.9375 17.375 C228.82662109 17.29765625 228.82662109 17.29765625 230.75390625 17.21875 C295.34007663 15.46278401 389.99200112 33.38043886 439.01171875 77.23046875 C469.04926411 105.8057401 490.25888413 149.05784467 493.22265625 190.34765625 C493.6931756 209.8026086 488.31047521 229.46628907 474.8125 244 C461.44304031 256.44434083 445.04746673 262.6583818 428 268.25 C427.21848572 268.50790314 426.43697144 268.76580627 425.6317749 269.03152466 C377.6836467 284.80999188 317.01910261 301.50939041 268.99560547 277.57519531 C262.01265308 273.91703839 255.80244372 269.67171387 249.9375 264.375 C249.19242187 263.72273438 248.44734375 263.07046875 247.6796875 262.3984375 C219.12588967 235.83445136 209.87788127 188.91857181 197.9375 153.375 C197.2775 153.375 196.6175 153.375 195.9375 153.375 C194.47794777 155.23859137 193.14065055 157.10718961 191.8125 159.0625 C187.40402804 165.39237999 182.8129037 171.5619725 178.125 177.6875 C177.43664062 178.58726562 176.74828125 179.48703125 176.0390625 180.4140625 C174.66035861 182.21439629 173.28097326 184.01420845 171.90087891 185.81347656 C170.10081172 188.16193527 168.30509221 190.51361539 166.51171875 192.8671875 C163.32894389 197.04310733 160.13613895 201.21122148 156.9375 205.375 C156.36257812 206.12410645 155.78765625 206.87321289 155.1953125 207.64501953 C148.46297611 216.40403907 141.64845096 225.04922722 134.44921875 233.4296875 C132.06218504 236.22879079 129.74389849 239.07185091 127.4375 241.9375 C122.95239101 247.44412848 118.1806473 252.65490845 113.34472656 257.85009766 C111.94165954 259.37049263 110.55822323 260.90657162 109.1796875 262.44921875 C82.47470485 292.25456619 82.47470485 292.25456619 65.15234375 294.78125 C60.70739738 295.02054725 57.05225088 295.02110919 53.375 292.3125 C48.6147286 286.57576267 48.54103495 280.49123586 48.9375 273.375 C49.43720903 269.52911844 50.16656422 265.74752292 50.9453125 261.94921875 C51.16575226 260.86364182 51.38619202 259.77806488 51.61331177 258.65959167 C53.99322744 247.41531513 57.29937952 236.50122713 60.75457764 225.54840088 C65.70680074 209.81574263 70.60311815 194.07787182 74.3125 178 C74.56757324 176.90018799 74.82264648 175.80037598 75.08544922 174.66723633 C79.76721043 153.38000907 83.36456617 127.96906736 72.25 108 C68.69082633 102.65225169 64.37011243 98.00374573 59.9375 93.375 C59.38449219 92.75882812 58.83148438 92.14265625 58.26171875 91.5078125 C52.9455403 85.78269725 46.4745251 81.57022387 39.9375 77.375 C39.33744141 76.98973145 38.73738281 76.60446289 38.11914062 76.20751953 C19.60433746 64.49676021 -0.62551872 55.79806821 -20.6875 47.125 C-37.96099365 39.65414272 -37.96099365 39.65414272 -46.125 35.375 C-47.06883545 34.88725098 -47.06883545 34.88725098 -48.03173828 34.38964844 C-52.75393023 31.8253838 -58.5856226 28.3287548 -61.0625 23.375 C-61.62398614 18.64247397 -61.72275215 15.57921548 -58.8125 11.6875 C-45.05183816 -2.26384075 -17.89052377 -0.13434494 0 0 Z M344.875 93 C343.2189978 93.2779541 343.2189978 93.2779541 341.52954102 93.56152344 C324.16815035 96.610452 302.61857355 102.04821321 290.9375 116.375 C285.64407185 124.40883121 283.43157871 132.95907948 281.9375 142.375 C281.68299072 143.96973145 281.68299072 143.96973145 281.42333984 145.59667969 C280.58375901 152.4417185 280.69906306 159.36306659 280.62109375 166.25 C280.60049047 167.7855684 280.57949319 169.32113156 280.55812073 170.85668945 C280.50324815 174.87444787 280.45368718 178.89225447 280.40527344 182.91009521 C280.35480219 187.01953355 280.29925065 191.12890297 280.24414062 195.23828125 C280.13698569 203.28379568 280.03544824 211.32936824 279.9375 219.375 C282.63664209 219.38211135 285.33576511 219.38728052 288.03491211 219.39135742 C288.79176048 219.39355034 289.54860886 219.39574326 290.32839203 219.39800262 C321.16976957 219.43286104 364.25238487 217.3097846 390.9375 200.375 C391.53046875 199.99988281 392.1234375 199.62476563 392.734375 199.23828125 C401.78600837 192.58952994 406.41122243 181.49762865 408.6875 170.875 C410.36236057 147.42695198 402.55086309 124.68695953 387.20556641 106.85009766 C379.73489721 98.56212448 370.8012006 92.59696331 359.57104492 91.45947266 C354.59091315 91.29973171 349.77078403 92.16352311 344.875 93 Z " fill="#076CB3" transform="translate(68.0625,190.625)"/>
<path d="M0 0 C1.09487732 0.00432037 2.18975464 0.00864075 3.31781006 0.01309204 C21.60336123 0.09726009 39.62055805 0.97093247 57.77441406 3.12176514 C60.0518116 3.38838258 62.3303325 3.64286591 64.609375 3.89501953 C107.06748291 8.61594137 150.01258654 14.57706075 189.9375 30.375 C189.0261038 34.34405024 187.33260453 37.2228766 185.19140625 40.66796875 C181.25967893 49.15609034 181.63327178 58.12533654 181.6875 67.3125 C181.67976562 68.61896484 181.67203125 69.92542969 181.6640625 71.27148438 C181.6788019 78.59327912 182.19102151 85.27530665 183.9375 92.375 C184.38338489 94.40844405 184.82727189 96.44232685 185.26953125 98.4765625 C188.21952483 111.57039364 191.17709422 124.61974442 196.015625 137.171875 C199.01246017 147.58460739 199.01246017 147.58460739 197.14501953 152.43212891 C195.88398901 154.47572315 194.50410606 156.31559903 193 158.1875 C192.46366943 158.8990625 191.92733887 159.610625 191.37475586 160.34375 C190.2057908 161.88753452 189.02434827 163.42193279 187.83203125 164.94775391 C185.87128539 167.45983321 183.94818796 169.99733208 182.03125 172.54296875 C178.6671494 177.0008224 175.27369166 181.4351829 171.86865234 185.86181641 C170.08035956 188.1890839 168.29827575 190.52089925 166.51953125 192.85546875 C163.33452227 197.03558302 160.13899621 201.20750209 156.9375 205.375 C156.36257812 206.12410645 155.78765625 206.87321289 155.1953125 207.64501953 C148.46297611 216.40403907 141.64845096 225.04922722 134.44921875 233.4296875 C132.06218504 236.22879079 129.74389849 239.07185091 127.4375 241.9375 C122.95239101 247.44412848 118.1806473 252.65490845 113.34472656 257.85009766 C111.94165954 259.37049263 110.55822323 260.90657162 109.1796875 262.44921875 C82.47470485 292.25456619 82.47470485 292.25456619 65.15234375 294.78125 C60.70739738 295.02054725 57.05225088 295.02110919 53.375 292.3125 C48.6147286 286.57576267 48.54103495 280.49123586 48.9375 273.375 C49.43720903 269.52911844 50.16656422 265.74752292 50.9453125 261.94921875 C51.16575226 260.86364182 51.38619202 259.77806488 51.61331177 258.65959167 C53.99322744 247.41531513 57.29937952 236.50122713 60.75457764 225.54840088 C65.70680074 209.81574263 70.60311815 194.07787182 74.3125 178 C74.56757324 176.90018799 74.82264648 175.80037598 75.08544922 174.66723633 C79.76721043 153.38000907 83.36456617 127.96906736 72.25 108 C68.69082633 102.65225169 64.37011243 98.00374573 59.9375 93.375 C59.38449219 92.75882812 58.83148438 92.14265625 58.26171875 91.5078125 C52.9455403 85.78269725 46.4745251 81.57022387 39.9375 77.375 C39.33744141 76.98973145 38.73738281 76.60446289 38.11914062 76.20751953 C19.60433746 64.49676021 -0.62551872 55.79806821 -20.6875 47.125 C-37.96099365 39.65414272 -37.96099365 39.65414272 -46.125 35.375 C-47.06883545 34.88725098 -47.06883545 34.88725098 -48.03173828 34.38964844 C-52.75393023 31.8253838 -58.5856226 28.3287548 -61.0625 23.375 C-61.62398614 18.64247397 -61.72275215 15.57921548 -58.8125 11.6875 C-45.05183816 -2.26384075 -17.89052377 -0.13434494 0 0 Z " fill="#F4A900" transform="translate(68.0625,190.625)"/>
<path d="M0 0 C8.2304233 7.29720995 14.83218963 15.47805132 21.48046875 24.19921875 C22.10308594 24.9365625 22.72570312 25.67390625 23.3671875 26.43359375 C23.73457031 27.01625 24.10195313 27.59890625 24.48046875 28.19921875 C24.15046875 29.18921875 23.82046875 30.17921875 23.48046875 31.19921875 C22.94421875 30.82410156 22.40796875 30.44898438 21.85546875 30.0625 C3.25214064 17.91526109 -20.06533928 16.68816021 -41.62963867 16.91796875 C-44.61064094 16.94952157 -47.5911116 16.95900074 -50.57226562 16.96484375 C-52.50391262 16.97400326 -54.43555433 16.98437565 -56.3671875 16.99609375 C-57.67684227 17.00246857 -57.67684227 17.00246857 -59.01295471 17.00897217 C-68.89481212 16.41151383 -68.89481212 16.41151383 -77.51953125 19.19921875 C-79.17995249 19.50853688 -80.85049015 19.76387931 -82.5234375 19.99609375 C-115.65320628 24.65798336 -115.65320628 24.65798336 -142.51953125 43.19921875 C-151.63645224 57.22041447 -152.62200662 73.91938282 -152.77989197 90.17629433 C-152.80114356 92.34955116 -152.82813912 94.52267244 -152.85656738 96.69584656 C-152.92594253 102.08530778 -152.98589085 107.47486524 -153.04559326 112.86444092 C-153.09654917 117.43705114 -153.15133797 122.00958291 -153.21141052 126.58208275 C-153.2379337 128.72195982 -153.25876738 130.86184467 -153.27941895 133.00178528 C-153.29613647 134.29710678 -153.312854 135.59242828 -153.33007812 136.92700195 C-153.34887024 138.63953911 -153.34887024 138.63953911 -153.36804199 140.38667297 C-153.51953125 143.19921875 -153.51953125 143.19921875 -154.51953125 146.19921875 C-160.56460269 146.53505605 -165.61406549 145.34657616 -171.39453125 143.63671875 C-172.31419678 143.36714355 -173.2338623 143.09756836 -174.18139648 142.81982422 C-193.14264225 137.11032239 -211.99272874 129.29192279 -223.51953125 112.19921875 C-223.51953125 111.53921875 -223.51953125 110.87921875 -223.51953125 110.19921875 C-224.50953125 110.19921875 -225.49953125 110.19921875 -226.51953125 110.19921875 C-237.33466461 79.13415125 -237.33466461 79.13415125 -238.82421875 67.71875 C-239.431518 64.64472404 -240.25292745 62.10684746 -241.36328125 59.1953125 C-243.91273385 52.42314853 -245.51589193 45.48984094 -247.14453125 38.44921875 C-247.73960515 35.91245975 -248.33591974 33.37599141 -248.93359375 30.83984375 C-249.19092285 29.73157227 -249.44825195 28.62330078 -249.71337891 27.48144531 C-250.28768387 25.14317882 -250.91611542 22.81792685 -251.58056641 20.50366211 C-254.00993125 11.95414232 -253.7349157 3.20935822 -253.76953125 -5.61328125 C-253.79015625 -6.91587891 -253.81078125 -8.21847656 -253.83203125 -9.56054688 C-253.88429467 -22.55454011 -251.43722927 -33.25928467 -243.51953125 -43.80078125 C-205.39103594 -80.31924413 -35.94033506 -30.54669171 0 0 Z " fill="#37A487" transform="translate(502.51953125,263.80078125)"/>
<path d="M0 0 C10.15536464 8.15951263 15.84427216 17.76437723 18.02734375 30.62890625 C18.99139334 43.40256326 16.43635475 54.15409759 9.02734375 64.62890625 C8.36605469 65.58410156 8.36605469 65.58410156 7.69140625 66.55859375 C0.88747881 75.40763232 -9.28892656 79.79149263 -19.84765625 82.31640625 C-34.08451401 83.74009203 -46.28807303 81.21481546 -57.97265625 72.62890625 C-67.38891754 64.12573696 -73.33714829 53.72155854 -74.2265625 40.99609375 C-74.81889082 26.07986242 -70.4647815 14.64896903 -60.47265625 3.50390625 C-44.36969208 -12.03841313 -17.81881976 -12.85661679 0 0 Z " fill="#F2A600" transform="translate(236.97265625,93.37109375)"/>
<path d="M0 0 C8.06204586 6.70735782 12.21531279 13.22021895 13.5 23.6875 C14.15456976 34.01831832 10.93362484 42.25992592 4.08984375 50.07421875 C-3.62837258 57.31802934 -12.33943185 58.93923284 -22.6875 58.63671875 C-27.79059803 58.09231497 -31.84282629 56.72952702 -36.3125 54.25 C-37.27929688 53.7240625 -37.27929688 53.7240625 -38.265625 53.1875 C-45.08711613 48.91665338 -49.24566271 41.90390432 -51.3125 34.25 C-52.38276362 23.04956674 -51.24526311 14.00072668 -44.3125 5 C-33.0729214 -6.96784503 -13.51596538 -9.68385259 0 0 Z " fill="#10A07B" transform="translate(376.3125,127.75)"/>
</svg>
